<svg width="150" height="83" viewBox="0 0 150 83" fill="none" xmlns="http://www.w3.org/2000/svg">
<path d="M13.2442 38.0555C14.3551 37.9148 15.1637 37.6617 15.67 37.2961C16.5559 36.6492 16.9989 35.5312 16.9989 33.9422C16.9989 32.7328 16.584 31.7766 15.7543 31.0734C15.2622 30.6656 14.4254 30.2437 13.2442 29.8078V38.0555ZM11.2403 16.0125C10.0168 16.0406 9.10981 16.3711 8.51919 17.0039C7.92856 17.6227 7.63325 18.4734 7.63325 19.5562C7.63325 20.7375 8.07622 21.6727 8.96216 22.3617C9.45435 22.7414 10.2137 23.093 11.2403 23.4164V16.0125ZM13.2864 46.9992H11.2403V42.8016C8.46997 42.4922 6.40278 41.8875 5.03872 40.9875C2.63403 39.3703 1.45278 36.6141 1.49497 32.7187H7.19028C7.38716 34.4906 7.66138 35.6789 8.01294 36.2836C8.56138 37.2258 9.63716 37.8375 11.2403 38.1187V29.1117L9.53169 28.6055C6.84575 27.818 4.94731 26.7211 3.83638 25.3148C2.7395 23.9086 2.19106 22.2141 2.19106 20.2312C2.19106 18.9234 2.402 17.7352 2.82388 16.6664C3.25981 15.5977 3.8645 14.6766 4.63794 13.9031C5.63638 12.9047 6.74731 12.2156 7.97075 11.8359C8.71606 11.5969 9.80591 11.4211 11.2403 11.3086V8.50312H13.2442V11.3508C15.5364 11.5336 17.3364 12.0961 18.6442 13.0383C21.0208 14.543 22.2512 16.9828 22.3356 20.3578H16.7879C16.6754 19.1062 16.4645 18.1922 16.1551 17.6156C15.6208 16.6172 14.6504 16.0687 13.2442 15.9703V24.007C16.5911 25.1602 18.8411 26.1797 19.9942 27.0656C21.8926 28.5422 22.8418 30.6234 22.8418 33.3094C22.8418 36.8531 21.5411 39.4266 18.9395 41.0297C17.3504 42.0141 15.4661 42.5906 13.2864 42.7594V46.9992ZM37.3355 50.3555C37.3355 52.3945 37.6636 54.082 38.3199 55.418C39.5386 57.8789 41.7535 59.1094 44.9644 59.1094C46.9332 59.1094 48.6441 58.4414 50.0972 57.1055C51.5738 55.7461 52.3121 53.8008 52.3121 51.2695C52.3121 47.918 50.9527 45.6797 48.2339 44.5547C46.6871 43.9219 44.2496 43.6055 40.9214 43.6055V36.4336C44.1793 36.3867 46.4527 36.0703 47.7418 35.4844C49.9683 34.5 51.0816 32.5078 51.0816 29.5078C51.0816 27.5625 50.5074 25.9805 49.3589 24.7617C48.2339 23.543 46.6402 22.9336 44.5777 22.9336C42.2105 22.9336 40.4644 23.6836 39.3394 25.1836C38.2378 26.6836 37.7105 28.6875 37.7574 31.1953H28.4058C28.4996 28.6641 28.9332 26.2617 29.7066 23.9883C30.5269 21.9961 31.816 20.1562 33.5738 18.4688C34.8863 17.2734 36.4449 16.3594 38.2496 15.7266C40.0543 15.0938 42.2691 14.7773 44.8941 14.7773C49.7691 14.7773 53.6949 16.043 56.6714 18.5742C59.6714 21.082 61.1714 24.457 61.1714 28.6992C61.1714 31.6992 60.2808 34.2305 58.4996 36.293C57.3746 37.582 56.2027 38.4609 54.9839 38.9297C55.898 38.9297 57.2105 39.7148 58.9214 41.2852C61.4761 43.6523 62.7535 46.8867 62.7535 50.9883C62.7535 55.3008 61.2535 59.0977 58.2535 62.3789C55.2769 65.6367 50.8589 67.2656 44.9996 67.2656C37.7808 67.2656 32.7652 64.9102 29.9527 60.1992C28.4761 57.6914 27.6558 54.4102 27.4918 50.3555H37.3355ZM67.816 32.9531C67.816 27.4922 69.3863 23.0742 72.5269 19.6992C75.691 16.3008 79.7925 14.6016 84.8316 14.6016C92.5894 14.6016 97.9097 18.0352 100.793 24.9023C102.433 28.793 103.253 33.9141 103.253 40.2656C103.253 46.4297 102.468 51.5742 100.898 55.6992C97.898 63.5508 92.3902 67.4766 84.3746 67.4766C80.5542 67.4766 77.1207 66.3516 74.0738 64.1016C71.0269 61.8281 69.2808 58.5234 68.8355 54.1875H78.8199C79.0542 55.6875 79.6871 56.9062 80.7183 57.8438C81.7496 58.7812 83.1207 59.25 84.8316 59.25C88.1363 59.25 90.4566 57.4219 91.7925 53.7656C92.5191 51.75 92.9761 48.8086 93.1636 44.9414C92.2496 46.0898 91.2769 46.9688 90.2457 47.5781C88.3707 48.7031 86.0621 49.2656 83.3199 49.2656C79.2652 49.2656 75.6675 47.8711 72.5269 45.082C69.3863 42.2695 67.816 38.2266 67.816 32.9531ZM85.4996 41.1094C86.8824 41.1094 88.1832 40.7109 89.4019 39.9141C91.6753 38.4609 92.8121 35.9414 92.8121 32.3555C92.8121 29.4727 92.1324 27.1875 90.773 25.5C89.4371 23.8125 87.5972 22.9688 85.2535 22.9688C83.5425 22.9688 82.0777 23.4492 80.8589 24.4102C78.9371 25.9102 77.9761 28.4531 77.9761 32.0391C77.9761 35.0625 78.5855 37.3359 79.8042 38.8594C81.0464 40.3594 82.9449 41.1094 85.4996 41.1094Z" fill="white"/>
<path d="M107.768 30.9258H111.91V35H107.768V30.9258ZM114.645 22.1484C114.645 20.0247 115.255 18.3066 116.477 16.9941C117.707 15.6725 119.302 15.0117 121.262 15.0117C124.279 15.0117 126.348 16.347 127.469 19.0176C128.107 20.5306 128.426 22.5221 128.426 24.9922C128.426 27.3893 128.12 29.39 127.51 30.9941C126.343 34.0475 124.201 35.5742 121.084 35.5742C119.598 35.5742 118.263 35.1367 117.078 34.2617C115.893 33.3776 115.214 32.0924 115.041 30.4062H118.924C119.015 30.9896 119.261 31.4635 119.662 31.8281C120.063 32.1927 120.596 32.375 121.262 32.375C122.547 32.375 123.449 31.6641 123.969 30.2422C124.251 29.4583 124.429 28.3145 124.502 26.8105C124.146 27.2572 123.768 27.599 123.367 27.8359C122.638 28.2734 121.74 28.4922 120.674 28.4922C119.097 28.4922 117.698 27.9499 116.477 26.8652C115.255 25.7715 114.645 24.1992 114.645 22.1484ZM121.521 25.3203C122.059 25.3203 122.565 25.1654 123.039 24.8555C123.923 24.2904 124.365 23.3105 124.365 21.916C124.365 20.7949 124.101 19.9062 123.572 19.25C123.053 18.5938 122.337 18.2656 121.426 18.2656C120.76 18.2656 120.191 18.4525 119.717 18.8262C118.969 19.4095 118.596 20.3984 118.596 21.793C118.596 22.9688 118.833 23.8529 119.307 24.4453C119.79 25.0286 120.528 25.3203 121.521 25.3203ZM134.018 29.6953C134.173 30.543 134.469 31.1992 134.906 31.6641C135.344 32.1198 135.982 32.3477 136.82 32.3477C137.786 32.3477 138.52 32.0104 139.021 31.3359C139.532 30.6523 139.787 29.7956 139.787 28.7656C139.787 27.7539 139.55 26.9017 139.076 26.209C138.602 25.5072 137.864 25.1562 136.861 25.1562C136.387 25.1562 135.977 25.2155 135.631 25.334C135.02 25.5527 134.56 25.9583 134.25 26.5508L130.75 26.3867L132.145 15.4355H143.068V18.7441H134.961L134.25 23.0781C134.852 22.6862 135.321 22.4264 135.658 22.2988C136.223 22.0892 136.911 21.9844 137.723 21.9844C139.363 21.9844 140.794 22.5358 142.016 23.6387C143.237 24.7415 143.848 26.3457 143.848 28.4512C143.848 30.2832 143.26 31.9193 142.084 33.3594C140.908 34.7995 139.149 35.5195 136.807 35.5195C134.92 35.5195 133.37 35.0137 132.158 34.002C130.946 32.9902 130.271 31.5547 130.135 29.6953H134.018Z" fill="white"/>
<path d="M102.924 50.5859V49.0566H105.326V46.6543H106.867V49.0566H109.27V50.5859H106.867V53H105.326V50.5859H102.924Z" fill="white"/>
<path d="M145.656 36.4863H147.285V39.1289H149.377V40.4766H147.285V47.168H145.656V40.4766H143.576V39.1582H145.656V36.4863Z" fill="white"/>
<path d="M113.062 49.4453C113.135 49.9714 113.279 50.3646 113.492 50.625C113.883 51.099 114.552 51.3359 115.5 51.3359C116.068 51.3359 116.529 51.2734 116.883 51.1484C117.555 50.9089 117.891 50.4635 117.891 49.8125C117.891 49.4323 117.724 49.138 117.391 48.9297C117.057 48.7266 116.534 48.5469 115.82 48.3906L114.602 48.1172C113.404 47.8464 112.576 47.5521 112.117 47.2344C111.341 46.7031 110.953 45.8724 110.953 44.7422C110.953 43.7109 111.328 42.8542 112.078 42.1719C112.828 41.4896 113.93 41.1484 115.383 41.1484C116.596 41.1484 117.63 41.4714 118.484 42.1172C119.344 42.7578 119.794 43.6901 119.836 44.9141H117.523C117.482 44.2214 117.18 43.7292 116.617 43.4375C116.242 43.2448 115.776 43.1484 115.219 43.1484C114.599 43.1484 114.104 43.2734 113.734 43.5234C113.365 43.7734 113.18 44.1224 113.18 44.5703C113.18 44.9818 113.362 45.2891 113.727 45.4922C113.961 45.6276 114.461 45.7865 115.227 45.9688L117.211 46.4453C118.081 46.6536 118.737 46.9323 119.18 47.2812C119.867 47.8229 120.211 48.6068 120.211 49.6328C120.211 50.6849 119.807 51.5599 119 52.2578C118.198 52.9505 117.062 53.2969 115.594 53.2969C114.094 53.2969 112.914 52.9557 112.055 52.2734C111.195 51.5859 110.766 50.6432 110.766 49.4453H113.062ZM121.641 49.9609C121.641 49.2682 121.812 48.6745 122.156 48.1797C122.5 47.6849 123.062 47.1953 123.844 46.7109L124.086 46.5625C123.753 46.1875 123.495 45.8047 123.312 45.4141C123.13 45.0234 123.039 44.6172 123.039 44.1953C123.039 43.3568 123.32 42.7031 123.883 42.2344C124.445 41.7604 125.174 41.5234 126.07 41.5234C126.888 41.5234 127.562 41.7656 128.094 42.25C128.63 42.7292 128.898 43.3438 128.898 44.0938C128.898 44.7708 128.737 45.3203 128.414 45.7422C128.096 46.1641 127.628 46.5547 127.008 46.9141L128.641 48.9297C128.828 48.6589 128.971 48.3646 129.07 48.0469C129.174 47.7292 129.229 47.3932 129.234 47.0391H131.211C131.18 47.737 131.013 48.4427 130.711 49.1562C130.544 49.5573 130.273 50 129.898 50.4844L131.992 53H129.289L128.492 52.0234C128.107 52.3828 127.747 52.6484 127.414 52.8203C126.82 53.1276 126.135 53.2812 125.359 53.2812C124.193 53.2812 123.281 52.9375 122.625 52.25C121.969 51.5625 121.641 50.7995 121.641 49.9609ZM125.086 44.1172C125.086 44.3255 125.159 44.5443 125.305 44.7734C125.398 44.9245 125.602 45.1927 125.914 45.5781C126.227 45.3594 126.451 45.1745 126.586 45.0234C126.846 44.7422 126.977 44.4375 126.977 44.1094C126.977 43.8698 126.898 43.6562 126.742 43.4688C126.586 43.2812 126.349 43.1875 126.031 43.1875C125.833 43.1875 125.648 43.2422 125.477 43.3516C125.216 43.513 125.086 43.7682 125.086 44.1172ZM123.859 49.8906C123.859 50.2708 124.013 50.6198 124.32 50.9375C124.633 51.2552 125.031 51.4141 125.516 51.4141C125.88 51.4141 126.224 51.3307 126.547 51.1641C126.875 50.9922 127.141 50.8021 127.344 50.5938L125.234 47.9844C124.677 48.3542 124.307 48.6797 124.125 48.9609C123.948 49.2422 123.859 49.5521 123.859 49.8906ZM133.539 53V41.4844H135.922V45.875H140.422V41.4844H142.812V53H140.422V47.8594H135.922V53H133.539Z" fill="white"/>
</svg>
